<?xml version="1.0" encoding="utf-8"?>
<!-- Generator: Adobe Illustrator 28.1.0, SVG Export Plug-In . SVG Version: 6.00 Build 0)  -->
<svg version="1.1" id="Layer_1" xmlns="http://www.w3.org/2000/svg" xmlns:xlink="http://www.w3.org/1999/xlink" x="0px" y="0px"
	 viewBox="0 0 792 612" style="enable-background:new 0 0 792 612;" xml:space="preserve">
<style type="text/css">
	.st0{fill:none;stroke:#2FBAE3;stroke-width:2;stroke-miterlimit:10;}
	.st1{fill:none;stroke:#F5A81C;stroke-miterlimit:10;}
	.st2{fill:#F5A81C;stroke:#F5A81C;stroke-miterlimit:10;}
	.st3{fill:#F68C31;stroke:#F5A81C;stroke-miterlimit:10;}
	.st4{fill:none;stroke:#FFFFFF;stroke-miterlimit:10;}
	.st5{fill:none;stroke:#F7941D;stroke-miterlimit:10;}
	.st6{fill:#F68C31;stroke:#F68C31;stroke-miterlimit:10;}
	.st7{fill:#2FBAE3;}
</style>
<g>
	<line class="st0" x1="338.2" y1="245.5" x2="338.2" y2="313.6"/>
	<line class="st0" x1="367.2" y1="291.3" x2="367.2" y2="229.5"/>
	<g>
		<line class="st1" x1="484.4" y1="433" x2="484.4" y2="432.5"/>
		<polyline class="st2" points="367.3,226.3 434.8,189.6 434.8,295.6 396.3,274.6 308.1,321.4 308.1,355.4 396.9,306.4 396.9,306.4 
			484.4,353.6 484.4,354.8 484.4,434.6 510,434.6 510.2,335.9 510.2,335.8 466.8,312.5 465.4,161.4 435,138.1 435,154.1 
			367.4,190.6 		"/>
	</g>
	<line class="st0" x1="367.2" y1="229.5" x2="367.2" y2="92.5"/>
	<path class="st3" d="M190.4,307.4"/>
	<path class="st1" d="M190.3,429.8"/>
	<line class="st0" x1="307.8" y1="423.6" x2="280.6" y2="438.7"/>
	<line class="st0" x1="313.3" y1="461.3" x2="298.6" y2="434.9"/>
	<polygon class="st2" points="223.1,453.6 223.1,304.4 280.6,273.3 280.6,237.7 191.9,286 191.9,286 191.8,433.7 	"/>
	<polygon class="st2" points="338.2,206.4 307.9,222.9 307.9,258.5 338.2,242.1 	"/>
	<polyline class="st2" points="583.5,252.6 583.5,461.2 555.1,461.2 555.1,230.6 	"/>
	<rect x="280.6" y="434.9" class="st2" width="27.3" height="26.6"/>
	<line class="st0" x1="280.6" y1="193.9" x2="280.6" y2="461.5"/>
	<line class="st0" x1="237.6" y1="461.5" x2="618.8" y2="461.2"/>
	<line class="st0" x1="509.9" y1="434.9" x2="509.9" y2="461.3"/>
	<line class="st0" x1="507.7" y1="461.3" x2="493.1" y2="434.9"/>
	<line class="st0" x1="509.8" y1="448.1" x2="502.4" y2="434.6"/>
	<line class="st0" x1="498.5" y1="461.3" x2="483.7" y2="434.8"/>
	<line class="st0" x1="489.2" y1="461.3" x2="474.5" y2="434.8"/>
	<line class="st0" x1="479.9" y1="461.3" x2="465.2" y2="434.8"/>
	<line class="st0" x1="470.7" y1="461.3" x2="456" y2="434.8"/>
	<line class="st0" x1="461.4" y1="461.3" x2="446.7" y2="434.8"/>
	<line class="st0" x1="452.2" y1="461.3" x2="437.5" y2="434.8"/>
	<line class="st0" x1="442.9" y1="461.3" x2="428.2" y2="434.8"/>
	<line class="st0" x1="433.6" y1="461.3" x2="418.9" y2="434.8"/>
	<line class="st0" x1="424.4" y1="461.3" x2="409.7" y2="434.8"/>
	<line class="st0" x1="415.1" y1="461.3" x2="400.4" y2="434.8"/>
	<line class="st0" x1="405.9" y1="461.3" x2="391.2" y2="434.9"/>
	<line class="st0" x1="396.6" y1="461.3" x2="382" y2="434.9"/>
	<line class="st0" x1="387.4" y1="461.3" x2="372.7" y2="434.9"/>
	<line class="st0" x1="378.1" y1="461.3" x2="363.5" y2="434.9"/>
	<line class="st0" x1="368.9" y1="461.5" x2="354.2" y2="434.9"/>
	<line class="st0" x1="359.6" y1="461.3" x2="344.9" y2="434.9"/>
	<line class="st0" x1="350.3" y1="461.3" x2="335.7" y2="434.9"/>
	<line class="st0" x1="341.1" y1="461.3" x2="326.4" y2="434.9"/>
	<line class="st0" x1="331.8" y1="461.3" x2="317.2" y2="434.9"/>
	<line class="st0" x1="322.5" y1="461.3" x2="307.9" y2="434.9"/>
	<path class="st4" d="M336.8,269.3"/>
	<path class="st4" d="M279.5,461.2"/>
	<line class="st0" x1="307.9" y1="321.3" x2="280.6" y2="336.1"/>
	<line class="st0" x1="307.9" y1="330.6" x2="280.6" y2="345.5"/>
	<line class="st0" x1="307.9" y1="340" x2="280.6" y2="354.8"/>
	<line class="st0" x1="307.9" y1="349.3" x2="280.6" y2="364.1"/>
	<line class="st0" x1="307.9" y1="358.6" x2="280.6" y2="373.4"/>
	<line class="st0" x1="307.9" y1="367.9" x2="280.6" y2="382.7"/>
	<line class="st0" x1="307.9" y1="377.2" x2="280.6" y2="392"/>
	<line class="st0" x1="307.9" y1="386.5" x2="280.6" y2="401.3"/>
	<line class="st0" x1="307.9" y1="395.8" x2="280.6" y2="410.6"/>
	<line class="st0" x1="307.9" y1="405.1" x2="280.6" y2="419.9"/>
	<line class="st0" x1="307.9" y1="414.5" x2="280.6" y2="429.3"/>
	<path class="st4" d="M279.9,273.7"/>
	<path class="st4" d="M307.4,258.7"/>
	<line class="st0" x1="307.9" y1="258.5" x2="280.6" y2="273.3"/>
	<line class="st0" x1="307.9" y1="222.9" x2="280.7" y2="237.7"/>
	<path class="st5" d="M277,275.3"/>
	<line class="st0" x1="338.2" y1="122.8" x2="338.2" y2="245.5"/>
	<line class="st0" x1="367.4" y1="190.6" x2="338.2" y2="206.4"/>
	<line class="st0" x1="367.2" y1="226.6" x2="338.2" y2="242.1"/>
	<line class="st0" x1="399.4" y1="77.5" x2="620.8" y2="249.6"/>
	<line class="st0" x1="434.9" y1="138.1" x2="434.9" y2="66.1"/>
	<line class="st0" x1="465.4" y1="161.4" x2="465.4" y2="88"/>
	<line class="st0" x1="583.5" y1="220.6" x2="583.5" y2="252.6"/>
	<line class="st0" x1="572.7" y1="212.2" x2="572.7" y2="244.1"/>
	<line class="st0" x1="561.8" y1="203.8" x2="561.8" y2="235.7"/>
	<line class="st0" x1="551" y1="195.3" x2="551" y2="227.4"/>
	<line class="st0" x1="540.1" y1="186.9" x2="540.1" y2="219"/>
	<line class="st0" x1="529.3" y1="178.5" x2="529.3" y2="210.6"/>
	<line class="st0" x1="518.5" y1="170.2" x2="518.5" y2="202.3"/>
	<line class="st0" x1="507.6" y1="161.9" x2="507.6" y2="193.6"/>
	<line class="st0" x1="496.8" y1="153.2" x2="496.8" y2="185.6"/>
	<line class="st0" x1="485.9" y1="144.8" x2="485.9" y2="177.2"/>
	<line class="st0" x1="475.1" y1="136.3" x2="475.1" y2="168.9"/>
	<path class="st1" d="M278.9,274.3"/>
	<rect x="374.5" y="355.1" class="st2" width="15.1" height="15.1"/>
	<rect x="401.1" y="355.1" class="st2" width="15.1" height="15.1"/>
	<rect x="374.5" y="381.9" class="st2" width="15.1" height="15.1"/>
	<rect x="401.1" y="381.9" class="st2" width="15.1" height="15.1"/>
	<path class="st3" d="M221.5,305.3"/>
	<path class="st6" d="M248,291"/>
	<path class="st2" d="M369.2,224.7"/>
	<path class="st2" d="M369.2,188.4"/>
	<g>
		<path class="st7" d="M593.3,362.1c38.5,25.4,94.6,78.9,54.7,125.5c-23.5,25.4-61.3,34.1-94.3,38.7c-68.4,8.2-137.9-1.5-204.1-19.3
			c-70.2-19.7-152.4-53.7-201.3-109.4c-16.5-19.1-30.1-46.4-19.6-71.5c6.7-16.2,21.3-27.3,36.6-34.8c-14.9,7.8-29.1,19.2-35.4,35.3
			c-9.6,24.7,4.3,50.7,20.5,69.2c59,64.7,165.8,101.4,250.2,118.1c66.8,12.7,164,20.3,225.2-12.9c34.7-19.5,42.5-51.2,21.4-85
			C633.7,394.2,613.9,377.1,593.3,362.1L593.3,362.1z"/>
	</g>
	<g>
		<path class="st7" d="M606,372.1c28.5,19.8,60.2,47,69.7,81.6c5,18,0.5,38.2-12,52.2c-34.8,38.8-104.6,45.4-154,45.8
			c-105.6-0.9-222.2-31.5-312.1-87.5c-39.3-25.1-102.7-76.3-82.1-129c7.1-17.1,22.5-29,38.6-37.1c-15.7,8.4-30.8,20.6-37.4,37.6
			c-10.4,26.1,3.6,53.9,20.6,73.8c41.3,47,102.3,76.3,160.1,97.8c84.8,29.8,176.4,46.8,266.3,36.5c26.6-3.6,53.5-9.7,76.9-23.3
			c30.1-17.5,43-45.9,28.5-79C655.9,412.5,631.2,390.8,606,372.1L606,372.1z"/>
	</g>
	<line class="st0" x1="237.6" y1="434.9" x2="618.8" y2="434.6"/>
	<line class="st0" x1="398.5" y1="109.8" x2="620.3" y2="280.8"/>
	<line class="st0" x1="307.9" y1="461.2" x2="307.9" y2="180.1"/>
	<path class="st1" d="M221.5,449"/>
	<path class="st1" d="M279.9,238.1"/>
</g>
</svg>
