<?xml version="1.0" encoding="utf-8"?>
<!-- Generator: Adobe Illustrator 28.1.0, SVG Export Plug-In . SVG Version: 6.00 Build 0)  -->
<svg version="1.1" id="Layer_1" xmlns="http://www.w3.org/2000/svg" xmlns:xlink="http://www.w3.org/1999/xlink" x="0px" y="0px"
	 viewBox="0 0 792 612" style="enable-background:new 0 0 792 612;" xml:space="preserve">
<style type="text/css">
	.st0{enable-background:new    ;}
	.st1{fill:#2FBAE3;}
	.st2{fill:#F5A81C;}
</style>
<g>
	<g class="st0">
		<path class="st1" d="M54,178.3v-32.4h21.7c3.1,0,5.7,1.1,7.9,3.2s3.3,4.7,3.3,7.6c0,3-1.1,5.5-3.3,7.6s-4.8,3.2-7.9,3.2H62.4v10.7
			H54z M62.4,160.1h11.9c2.7,0,4.2-1.4,4.2-3.4s-1.5-3.4-4.2-3.4H62.4V160.1z"/>
		<path class="st1" d="M110.1,155.8l7.8-10h9.9L115,162.1l12.8,16.2h-9.9l-7.8-9.9l-7.8,9.9h-9.9l12.8-16.2l-12.8-16.2h9.9
			L110.1,155.8z"/>
		<path class="st1" d="M135.4,178.3v-32.4h21.7c3.1,0,5.7,1.1,7.9,3.2s3.3,4.7,3.3,7.6c0,3-1.1,5.5-3.3,7.6s-4.8,3.2-7.9,3.2h-13.3
			v10.7H135.4z M143.8,160.1h11.9c2.7,0,4.2-1.4,4.2-3.4s-1.5-3.4-4.2-3.4h-11.9V160.1z"/>
		<path class="st1" d="M200.7,173.8c-3.5-3.3-5.3-7.2-5.3-11.7c0-4.5,1.8-8.4,5.3-11.7c3.3-3,8-4.8,12.6-4.8c3.1,0,6.1,0.7,8.9,2.1
			c2.8,1.4,5,3.4,6.6,5.8l-6.7,4.9c-1.7-3.1-5-4.9-8.7-4.9c-2.6,0-4.9,0.8-6.8,2.5c-1.9,1.7-2.8,3.7-2.8,6c0,2.4,1,4.4,2.8,6.1
			c1.9,1.7,4.1,2.5,6.8,2.5c3.8,0,7.1-1.9,8.8-5.1l6.8,4.7c-1.5,2.6-3.7,4.6-6.6,6.2c-2.8,1.5-5.8,2.2-9.1,2.2
			C208.7,178.6,204.1,176.8,200.7,173.8z"/>
		<path class="st1" d="M266.6,173.8c-3.5,3.2-7.8,4.8-12.7,4.8s-9.2-1.6-12.7-4.8c-3.5-3.2-5.2-7.1-5.2-11.7c0-4.6,1.7-8.5,5.2-11.7
			c3.5-3.2,7.8-4.8,12.7-4.8s9.2,1.6,12.7,4.8c3.5,3.2,5.3,7.1,5.3,11.7C271.9,166.7,270.1,170.6,266.6,173.8z M253.9,170.7
			c2.7,0,4.9-0.8,6.8-2.5c1.9-1.7,2.8-3.7,2.8-6.1c0-2.4-1-4.4-2.8-6c-1.9-1.7-4.1-2.5-6.8-2.5c-2.6,0-4.9,0.8-6.8,2.5
			c-1.9,1.7-2.8,3.7-2.8,6c0,2.4,1,4.4,2.8,6.1C249,169.9,251.3,170.7,253.9,170.7z"/>
		<path class="st1" d="M288.7,178.3h-8.4v-33.7l24.5,19.3v-18h8.3v33.8l-24.5-19.1V178.3z"/>
		<path class="st1" d="M338.3,178.9c-4.5,0-9.3-1.2-12.8-3.7c-1.8-1.2-2.9-2.7-3.3-4.3l6.3-3.8c2.3,2.8,5.6,4.1,9.9,4.1
			c2.6,0,4.7-0.4,6.3-1.1c0.9-0.4,1.3-1,1.3-1.8c0-0.8-0.3-1.3-1.1-1.7c-1.1-0.5-3.2-0.8-6.3-1.2c-5-0.6-8.1-1.2-9.5-1.7
			c-4-1.7-5.9-4.4-5.7-7.9c0-3.8,1.9-6.6,5.8-8.5c2.6-1.3,6-1.9,10.1-1.9c7.7,0,12.8,2.7,14.4,7.8l-7.1,3.7c-1.3-3.1-3.6-4.5-8-4.5
			c-1.5,0-3,0.3-4.6,0.9c-1.5,0.6-2.3,1.3-2.4,2.2c0,1.6,1.3,2.3,4.4,2.8l3,0.4c0.8,0,1.7,0.2,2.6,0.3c3.3,0.5,5.6,0.9,6.9,1.4
			c4,1.6,6,4.3,5.7,8.1v0.3c-0.2,4.5-3.6,7.7-8.2,9.1C343.8,178.5,341.2,178.9,338.3,178.9z"/>
		<path class="st1" d="M373.1,178.3v-24.6h-12.3v-7.8h32.9v7.8h-12.2v24.6H373.1z"/>
		<path class="st1" d="M424.5,178.3l-8.7-10.7h-6.1v10.7h-8.4v-32.4h20.9c3.1,0,5.7,1.1,7.9,3.2c2.2,2.1,3.3,4.7,3.3,7.6
			c0,2.4-0.7,4.6-2.2,6.4s-3.4,3.1-5.7,3.8l9.3,11.4H424.5z M409.7,160.1H421c2.6,0,4-1.5,4-3.5c0-2.1-1.3-3.6-4-3.6h-11.3V160.1z"
			/>
		<path class="st1" d="M459.2,178.9c-4.5,0-8.4-1.6-11.7-4.8c-3.2-3.2-4.8-7.1-4.8-11.6v-16.6h8.4v16.6c0,2.4,0.8,4.3,2.4,6
			c1.6,1.7,3.5,2.5,5.7,2.5c2.2,0,4.1-0.8,5.7-2.5c1.6-1.7,2.4-3.6,2.4-6v-16.6h8.3v16.6c0,4.5-1.6,8.4-4.8,11.6
			C467.6,177.3,463.7,178.9,459.2,178.9z"/>
		<path class="st1" d="M489.3,173.8c-3.5-3.3-5.3-7.2-5.3-11.7c0-4.5,1.8-8.4,5.3-11.7c3.3-3,8-4.8,12.6-4.8c3.1,0,6.1,0.7,8.9,2.1
			s5,3.4,6.6,5.8l-6.7,4.9c-1.7-3.1-5-4.9-8.7-4.9c-2.6,0-4.9,0.8-6.8,2.5c-1.9,1.7-2.8,3.7-2.8,6c0,2.4,1,4.4,2.8,6.1
			c1.9,1.7,4.1,2.5,6.8,2.5c3.8,0,7.1-1.9,8.8-5.1l6.8,4.7c-1.5,2.6-3.7,4.6-6.6,6.2c-2.8,1.5-5.8,2.2-9.1,2.2
			C497.3,178.6,492.7,176.8,489.3,173.8z"/>
		<path class="st1" d="M536,178.3v-24.6h-12.3v-7.8h32.9v7.8h-12.2v24.6H536z"/>
		<path class="st1" d="M583.3,162.1c-0.2-9.1,8.6-16.7,18-16.5c3,0,5.8,0.7,8.5,1.9c2.7,1.3,4.8,3.1,6.4,5.3l-6.8,4.6
			c-1.9-2.4-4.9-3.9-8.1-3.9c-2.6,0-4.9,0.8-6.8,2.5c-1.9,1.7-2.8,3.7-2.8,6c0,2.4,1,4.4,2.8,6.1c1.9,1.7,4.1,2.5,6.8,2.5
			c3.1,0,6-1.3,8-3.8v-0.5h-8.8v-6.5h16.8v9.9c-3.7,5.7-9.4,8.8-15.9,8.8c-4.9,0-9.2-1.6-12.7-4.8
			C585.1,170.6,583.3,166.7,583.3,162.1z"/>
		<path class="st1" d="M648.9,178.3l-8.7-10.7H634v10.7h-8.4v-32.4h21c3.1,0,5.7,1.1,7.9,3.2c2.2,2.1,3.3,4.7,3.3,7.6
			c0,2.4-0.7,4.6-2.2,6.4s-3.4,3.1-5.7,3.8l9.3,11.4H648.9z M634,160.1h11.3c2.6,0,4-1.5,4-3.5c0-2.1-1.3-3.6-4-3.6H634V160.1z"/>
		<path class="st1" d="M683.5,178.9c-4.5,0-8.4-1.6-11.7-4.8c-3.2-3.2-4.8-7.1-4.8-11.6v-16.6h8.4v16.6c0,2.4,0.8,4.3,2.4,6
			c1.6,1.7,3.5,2.5,5.7,2.5c2.2,0,4.1-0.8,5.7-2.5c1.6-1.7,2.4-3.6,2.4-6v-16.6h8.3v16.6c0,4.5-1.6,8.4-4.8,11.6
			C691.9,177.3,688,178.9,683.5,178.9z"/>
		<path class="st1" d="M710,178.3v-32.4h21.7c3.1,0,5.7,1.1,7.9,3.2c2.2,2.1,3.3,4.7,3.3,7.6c0,3-1.1,5.5-3.3,7.6
			c-2.2,2.1-4.8,3.2-7.9,3.2h-13.3v10.7H710z M718.4,160.1h11.9c2.7,0,4.2-1.4,4.2-3.4s-1.5-3.4-4.2-3.4h-11.9V160.1z"/>
	</g>
	<g class="st0">
		<path class="st2" d="M146.5,210.3h-8.9v-18h8.9c2.5,0,4.6,0.9,6.4,2.6c1.8,1.8,2.6,3.9,2.6,6.4s-0.9,4.6-2.6,6.4
			C151.1,209.4,149,210.3,146.5,210.3z M140.3,195.1v12.5h6.2c1.7,0,3.2-0.6,4.4-1.8s1.8-2.7,1.8-4.4s-0.6-3.2-1.8-4.4
			s-2.7-1.8-4.4-1.8H140.3z"/>
		<path class="st2" d="M176.9,207.5v2.8h-16.8v-18h16.8v2.8h-14v4.9h9.5v2.8h-9.5v4.9H176.9z"/>
		<path class="st2" d="M194,210.3v-18h2.8v15.2h12.3v2.8H194z"/>
		<path class="st2" d="M216.5,206.9l-1.7,3.4h-3.1l9.2-18.8l9.5,18.8h-3.1l-1.8-3.4H216.5z M221,197.5l-3.2,6.7h6.5L221,197.5z"/>
		<path class="st2" d="M246.2,210.3v-18h12.2c1.6,0,2.9,0.6,4,1.7c1.1,1.1,1.7,2.4,1.7,4s-0.6,2.9-1.7,4c-1.1,1.1-2.4,1.7-4,1.7H249
			v6.7H246.2z M249,200.9h9.5c0.8,0,1.5-0.3,2.1-0.8c0.6-0.6,0.8-1.3,0.8-2.1c0-0.8-0.3-1.5-0.8-2.1c-0.6-0.6-1.3-0.8-2.1-0.8H249
			V200.9z"/>
		<path class="st2" d="M283.1,210.3l-6.4-6.7h-5.1v6.7h-2.8v-18h11.8c1.6,0,2.9,0.6,4,1.7c1.1,1.1,1.7,2.4,1.7,4
			c0,1.6-0.6,2.9-1.7,4c-1.1,1.1-2.5,1.6-4.2,1.6l6.4,6.7H283.1z M271.5,200.9h9c0.8,0,1.5-0.3,2-0.8c0.6-0.6,0.9-1.3,0.9-2.1
			c0-0.8-0.3-1.5-0.9-2.1c-0.6-0.6-1.2-0.8-2-0.8h-9V200.9z"/>
		<path class="st2" d="M300.4,210.3c-2.7,0-5-0.9-7-2.6c-2-1.7-2.9-3.9-2.9-6.4c0-1.7,0.5-3.2,1.4-4.6c0.9-1.4,2.1-2.5,3.6-3.2
			c1.5-0.8,3.1-1.2,4.9-1.2c2.7,0,5,0.9,7,2.6s2.9,3.9,2.9,6.4c0,2.5-1,4.7-2.9,6.4C305.4,209.4,303.1,210.3,300.4,210.3z
			 M295.3,205.7c1.4,1.2,3.1,1.8,5.1,1.8s3.6-0.6,5-1.8s2.1-2.7,2.1-4.4s-0.7-3.2-2.1-4.4s-3.1-1.8-5-1.8s-3.7,0.6-5.1,1.8
			s-2.1,2.7-2.1,4.4S293.9,204.5,295.3,205.7z"/>
		<path class="st2" d="M318,192.3v18h-2.8v-18H318z"/>
		<path class="st2" d="M340.5,207.5v2.8h-16.8v-18h16.8v2.8h-14v4.9h9.5v2.8h-9.5v4.9H340.5z"/>
		<path class="st2" d="M347.9,207.7c-2-1.8-3-3.9-3-6.4s1-4.6,3-6.4c2-1.7,4.3-2.6,7-2.6c3.4,0,6.6,1.6,8.4,4.2l-2.3,1.6
			c-1.3-1.9-3.7-3-6.2-3c-2,0-3.7,0.6-5.1,1.8s-2.1,2.7-2.1,4.4s0.7,3.2,2.1,4.4s3.1,1.8,5.1,1.8c2.5,0,4.8-1.1,6.2-3l2.3,1.6
			c-1.9,2.7-5,4.2-8.4,4.2C352.2,210.3,349.9,209.5,347.9,207.7z"/>
		<path class="st2" d="M374.4,210.3v-15.2h-7.6v-2.8h17.9v2.8h-7.6v15.2H374.4z"/>
		<path class="st2" d="M392.1,206.9l-1.7,3.4h-3.1l9.2-18.8l9.5,18.8H403l-1.8-3.4H392.1z M396.6,197.5l-3.2,6.7h6.5L396.6,197.5z"
			/>
		<path class="st2" d="M424.3,210.3l-6.4-6.7h-5.1v6.7H410v-18h11.8c1.6,0,2.9,0.6,4,1.7c1.1,1.1,1.7,2.4,1.7,4c0,1.6-0.6,2.9-1.7,4
			c-1.1,1.1-2.5,1.6-4.2,1.6l6.4,6.7H424.3z M412.8,200.9h9c0.8,0,1.5-0.3,2-0.8c0.6-0.6,0.9-1.3,0.9-2.1c0-0.8-0.3-1.5-0.9-2.1
			c-0.6-0.6-1.2-0.8-2-0.8h-9V200.9z"/>
		<path class="st2" d="M449.4,207.5v2.8h-16.8v-18h16.8v2.8h-14v4.9h9.5v2.8h-9.5v4.9H449.4z"/>
		<path class="st2" d="M466.6,210.3v-18h2.8v15.2h12.3v2.8H466.6z"/>
		<path class="st2" d="M489.1,206.9l-1.7,3.4h-3.1l9.2-18.8l9.5,18.8h-3.1l-1.8-3.4H489.1z M493.5,197.5l-3.2,6.7h6.5L493.5,197.5z"
			/>
		<path class="st2" d="M518.8,210.3v-18H531c1.6,0,2.9,0.6,4,1.7c1.1,1.1,1.7,2.4,1.7,4s-0.6,2.9-1.7,4c-1.1,1.1-2.4,1.7-4,1.7h-9.5
			v6.7H518.8z M521.5,200.9h9.5c0.8,0,1.5-0.3,2.1-0.8c0.6-0.6,0.8-1.3,0.8-2.1c0-0.8-0.3-1.5-0.8-2.1c-0.6-0.6-1.3-0.8-2.1-0.8
			h-9.5V200.9z"/>
		<path class="st2" d="M555.6,210.3l-6.4-6.7h-5.1v6.7h-2.8v-18h11.8c1.6,0,2.9,0.6,4,1.7c1.1,1.1,1.7,2.4,1.7,4
			c0,1.6-0.6,2.9-1.7,4c-1.1,1.1-2.5,1.6-4.2,1.6l6.4,6.7H555.6z M544.1,200.9h9c0.8,0,1.5-0.3,2-0.8c0.6-0.6,0.9-1.3,0.9-2.1
			c0-0.8-0.3-1.5-0.9-2.1c-0.6-0.6-1.2-0.8-2-0.8h-9V200.9z"/>
		<path class="st2" d="M580.7,207.5v2.8h-16.8v-18h16.8v2.8h-14v4.9h9.5v2.8h-9.5v4.9H580.7z"/>
		<path class="st2" d="M595,210.3h-8.9v-18h8.9c2.5,0,4.6,0.9,6.4,2.6c1.8,1.8,2.6,3.9,2.6,6.4s-0.9,4.6-2.6,6.4
			C599.6,209.4,597.5,210.3,595,210.3z M588.8,195.1v12.5h6.2c1.7,0,3.2-0.6,4.4-1.8c1.2-1.2,1.8-2.7,1.8-4.4s-0.6-3.2-1.8-4.4
			c-1.2-1.2-2.7-1.8-4.4-1.8H588.8z"/>
		<path class="st2" d="M611.6,206.9l-1.7,3.4h-3.1l9.2-18.8l9.5,18.8h-3.1l-1.8-3.4H611.6z M616.1,197.5l-3.2,6.7h6.5L616.1,197.5z"
			/>
		<path class="st2" d="M643.8,210.3l-6.4-6.7h-5.1v6.7h-2.8v-18h11.8c1.6,0,2.9,0.6,4,1.7c1.1,1.1,1.7,2.4,1.7,4
			c0,1.6-0.6,2.9-1.7,4c-1.1,1.1-2.5,1.6-4.2,1.6l6.4,6.7H643.8z M632.3,200.9h9c0.8,0,1.5-0.3,2-0.8c0.6-0.6,0.9-1.3,0.9-2.1
			c0-0.8-0.3-1.5-0.9-2.1c-0.6-0.6-1.2-0.8-2-0.8h-9V200.9z"/>
		<path class="st2" d="M668.9,207.5v2.8h-16.8v-18h16.8v2.8h-14v4.9h9.5v2.8h-9.5v4.9H668.9z"/>
	</g>
</g>
<g>
	<g class="st0">
		<path class="st1" d="M54,398.3v-32.4h21.7c3.1,0,5.7,1.1,7.9,3.2s3.3,4.7,3.3,7.6c0,3-1.1,5.5-3.3,7.6s-4.8,3.2-7.9,3.2H62.4v10.7
			H54z M62.4,380.1h11.9c2.7,0,4.2-1.4,4.2-3.4s-1.5-3.4-4.2-3.4H62.4V380.1z"/>
		<path class="st1" d="M110.1,375.8l7.8-10h9.9L115,382l12.8,16.2h-9.9l-7.8-9.9l-7.8,9.9h-9.9l12.8-16.2l-12.8-16.2h9.9
			L110.1,375.8z"/>
		<path class="st1" d="M135.4,398.3v-32.4h21.7c3.1,0,5.7,1.1,7.9,3.2s3.3,4.7,3.3,7.6c0,3-1.1,5.5-3.3,7.6s-4.8,3.2-7.9,3.2h-13.3
			v10.7H135.4z M143.8,380.1h11.9c2.7,0,4.2-1.4,4.2-3.4s-1.5-3.4-4.2-3.4h-11.9V380.1z"/>
		<path class="st1" d="M200.7,393.8c-3.5-3.3-5.3-7.2-5.3-11.7c0-4.5,1.8-8.4,5.3-11.7c3.3-3,8-4.8,12.6-4.8c3.1,0,6.1,0.7,8.9,2.1
			c2.8,1.4,5,3.4,6.6,5.8l-6.7,4.9c-1.7-3.1-5-4.9-8.7-4.9c-2.6,0-4.9,0.8-6.8,2.5c-1.9,1.7-2.8,3.7-2.8,6c0,2.4,1,4.4,2.8,6.1
			c1.9,1.7,4.1,2.5,6.8,2.5c3.8,0,7.1-1.9,8.8-5.1l6.8,4.7c-1.5,2.6-3.7,4.6-6.6,6.2c-2.8,1.5-5.8,2.2-9.1,2.2
			C208.7,398.6,204.1,396.8,200.7,393.8z"/>
		<path class="st1" d="M266.6,393.8c-3.5,3.2-7.8,4.8-12.7,4.8s-9.2-1.6-12.7-4.8c-3.5-3.2-5.2-7.1-5.2-11.7c0-4.6,1.7-8.5,5.2-11.7
			c3.5-3.2,7.8-4.8,12.7-4.8s9.2,1.6,12.7,4.8c3.5,3.2,5.3,7.1,5.3,11.7C271.9,386.7,270.1,390.6,266.6,393.8z M253.9,390.6
			c2.7,0,4.9-0.8,6.8-2.5c1.9-1.7,2.8-3.7,2.8-6.1c0-2.4-1-4.4-2.8-6c-1.9-1.7-4.1-2.5-6.8-2.5c-2.6,0-4.9,0.8-6.8,2.5
			c-1.9,1.7-2.8,3.7-2.8,6c0,2.4,1,4.4,2.8,6.1C249,389.8,251.3,390.6,253.9,390.6z"/>
		<path class="st1" d="M288.7,398.3h-8.4v-33.7l24.5,19.3v-18h8.3v33.8l-24.5-19.1V398.3z"/>
		<path class="st1" d="M338.3,398.8c-4.5,0-9.3-1.2-12.8-3.7c-1.8-1.2-2.9-2.7-3.3-4.3l6.3-3.8c2.3,2.8,5.6,4.1,9.9,4.1
			c2.6,0,4.7-0.4,6.3-1.1c0.9-0.4,1.3-1,1.3-1.8c0-0.8-0.3-1.3-1.1-1.7c-1.1-0.5-3.2-0.8-6.3-1.2c-5-0.6-8.1-1.2-9.5-1.7
			c-4-1.7-5.9-4.4-5.7-7.9c0-3.8,1.9-6.6,5.8-8.5c2.6-1.3,6-1.9,10.1-1.9c7.7,0,12.8,2.7,14.4,7.8l-7.1,3.7c-1.3-3.1-3.6-4.5-8-4.5
			c-1.5,0-3,0.3-4.6,0.9c-1.5,0.6-2.3,1.3-2.4,2.2c0,1.6,1.3,2.3,4.4,2.8l3,0.4c0.8,0,1.7,0.2,2.6,0.3c3.3,0.5,5.6,0.9,6.9,1.4
			c4,1.6,6,4.3,5.7,8.1v0.3c-0.2,4.5-3.6,7.7-8.2,9.1C343.8,398.5,341.2,398.8,338.3,398.8z"/>
		<path class="st1" d="M373.1,398.3v-24.6h-12.3v-7.8h32.9v7.8h-12.2v24.6H373.1z"/>
		<path class="st1" d="M424.5,398.3l-8.7-10.7h-6.1v10.7h-8.4v-32.4h20.9c3.1,0,5.7,1.1,7.9,3.2c2.2,2.1,3.3,4.7,3.3,7.6
			c0,2.4-0.7,4.6-2.2,6.4s-3.4,3.1-5.7,3.8l9.3,11.4H424.5z M409.7,380.1H421c2.6,0,4-1.5,4-3.5c0-2.1-1.3-3.6-4-3.6h-11.3V380.1z"
			/>
		<path class="st1" d="M459.2,398.8c-4.5,0-8.4-1.6-11.7-4.8c-3.2-3.2-4.8-7.1-4.8-11.6v-16.6h8.4v16.6c0,2.4,0.8,4.3,2.4,6
			c1.6,1.7,3.5,2.5,5.7,2.5c2.2,0,4.1-0.8,5.7-2.5c1.6-1.7,2.4-3.6,2.4-6v-16.6h8.3v16.6c0,4.5-1.6,8.4-4.8,11.6
			C467.6,397.2,463.7,398.8,459.2,398.8z"/>
		<path class="st1" d="M489.3,393.8c-3.5-3.3-5.3-7.2-5.3-11.7c0-4.5,1.8-8.4,5.3-11.7c3.3-3,8-4.8,12.6-4.8c3.1,0,6.1,0.7,8.9,2.1
			s5,3.4,6.6,5.8l-6.7,4.9c-1.7-3.1-5-4.9-8.7-4.9c-2.6,0-4.9,0.8-6.8,2.5c-1.9,1.7-2.8,3.7-2.8,6c0,2.4,1,4.4,2.8,6.1
			c1.9,1.7,4.1,2.5,6.8,2.5c3.8,0,7.1-1.9,8.8-5.1l6.8,4.7c-1.5,2.6-3.7,4.6-6.6,6.2c-2.8,1.5-5.8,2.2-9.1,2.2
			C497.3,398.6,492.7,396.8,489.3,393.8z"/>
		<path class="st1" d="M536,398.3v-24.6h-12.3v-7.8h32.9v7.8h-12.2v24.6H536z"/>
		<path class="st1" d="M583.3,382.1c-0.2-9.1,8.6-16.7,18-16.5c3,0,5.8,0.7,8.5,1.9c2.7,1.3,4.8,3.1,6.4,5.3l-6.8,4.6
			c-1.9-2.4-4.9-3.9-8.1-3.9c-2.6,0-4.9,0.8-6.8,2.5c-1.9,1.7-2.8,3.7-2.8,6c0,2.4,1,4.4,2.8,6.1c1.9,1.7,4.1,2.5,6.8,2.5
			c3.1,0,6-1.3,8-3.8v-0.5h-8.8v-6.5h16.8v9.9c-3.7,5.7-9.4,8.8-15.9,8.8c-4.9,0-9.2-1.6-12.7-4.8
			C585.1,390.6,583.3,386.7,583.3,382.1z"/>
		<path class="st1" d="M648.9,398.3l-8.7-10.7H634v10.7h-8.4v-32.4h21c3.1,0,5.7,1.1,7.9,3.2c2.2,2.1,3.3,4.7,3.3,7.6
			c0,2.4-0.7,4.6-2.2,6.4s-3.4,3.1-5.7,3.8l9.3,11.4H648.9z M634,380.1h11.3c2.6,0,4-1.5,4-3.5c0-2.1-1.3-3.6-4-3.6H634V380.1z"/>
		<path class="st1" d="M683.5,398.8c-4.5,0-8.4-1.6-11.7-4.8c-3.2-3.2-4.8-7.1-4.8-11.6v-16.6h8.4v16.6c0,2.4,0.8,4.3,2.4,6
			c1.6,1.7,3.5,2.5,5.7,2.5c2.2,0,4.1-0.8,5.7-2.5c1.6-1.7,2.4-3.6,2.4-6v-16.6h8.3v16.6c0,4.5-1.6,8.4-4.8,11.6
			C691.9,397.2,688,398.8,683.5,398.8z"/>
		<path class="st1" d="M710,398.3v-32.4h21.7c3.1,0,5.7,1.1,7.9,3.2c2.2,2.1,3.3,4.7,3.3,7.6c0,3-1.1,5.5-3.3,7.6
			c-2.2,2.1-4.8,3.2-7.9,3.2h-13.3v10.7H710z M718.4,380.1h11.9c2.7,0,4.2-1.4,4.2-3.4s-1.5-3.4-4.2-3.4h-11.9V380.1z"/>
	</g>
	<g class="st0">
		<path class="st2" d="M63,430.3H54v-18H63c2.5,0,4.6,0.9,6.4,2.6c1.8,1.8,2.6,3.9,2.6,6.4s-0.9,4.6-2.6,6.4
			C67.5,429.4,65.4,430.3,63,430.3z M56.8,415v12.5H63c1.7,0,3.2-0.6,4.4-1.8s1.8-2.7,1.8-4.4s-0.6-3.2-1.8-4.4S64.7,415,63,415
			H56.8z"/>
		<path class="st2" d="M93.4,427.5v2.8H76.6v-18h16.8v2.8h-14v4.9h9.5v2.8h-9.5v4.9H93.4z"/>
		<path class="st2" d="M110.5,430.3v-18h2.8v15.2h12.3v2.8H110.5z"/>
		<path class="st2" d="M133,426.8l-1.7,3.4h-3.1l9.2-18.8l9.5,18.8h-3.1l-1.8-3.4H133z M137.4,417.5l-3.2,6.7h6.5L137.4,417.5z"/>
		<path class="st2" d="M162.7,430.3v-18h12.2c1.6,0,2.9,0.6,4,1.7c1.1,1.1,1.7,2.4,1.7,4s-0.6,2.9-1.7,4c-1.1,1.1-2.4,1.7-4,1.7
			h-9.5v6.7H162.7z M165.4,420.8h9.5c0.8,0,1.5-0.3,2.1-0.8c0.6-0.6,0.8-1.3,0.8-2.1c0-0.8-0.3-1.5-0.8-2.1
			c-0.6-0.6-1.3-0.8-2.1-0.8h-9.5V420.8z"/>
		<path class="st2" d="M199.5,430.3l-6.4-6.7H188v6.7h-2.8v-18H197c1.6,0,2.9,0.6,4,1.7c1.1,1.1,1.7,2.4,1.7,4c0,1.6-0.6,2.9-1.7,4
			c-1.1,1.1-2.5,1.6-4.2,1.6l6.4,6.7H199.5z M188,420.8h9c0.8,0,1.5-0.3,2-0.8c0.6-0.6,0.9-1.3,0.9-2.1c0-0.8-0.3-1.5-0.9-2.1
			c-0.6-0.6-1.2-0.8-2-0.8h-9V420.8z"/>
		<path class="st2" d="M216.9,430.3c-2.7,0-5-0.9-7-2.6c-2-1.7-2.9-3.9-2.9-6.4c0-1.7,0.5-3.2,1.4-4.6c0.9-1.4,2.1-2.5,3.6-3.2
			c1.5-0.8,3.1-1.2,4.9-1.2c2.7,0,5,0.9,7,2.6s2.9,3.9,2.9,6.4c0,2.5-1,4.7-2.9,6.4C221.9,429.4,219.6,430.3,216.9,430.3z
			 M211.8,425.7c1.4,1.2,3.1,1.8,5.1,1.8s3.6-0.6,5-1.8s2.1-2.7,2.1-4.4s-0.7-3.2-2.1-4.4s-3.1-1.8-5-1.8s-3.7,0.6-5.1,1.8
			s-2.1,2.7-2.1,4.4S210.4,424.5,211.8,425.7z"/>
		<path class="st2" d="M234.4,412.3v18h-2.8v-18H234.4z"/>
		<path class="st2" d="M257,427.5v2.8h-16.8v-18H257v2.8h-14v4.9h9.5v2.8H243v4.9H257z"/>
		<path class="st2" d="M264.4,427.7c-2-1.8-3-3.9-3-6.4s1-4.6,3-6.4c2-1.7,4.3-2.6,7-2.6c3.4,0,6.6,1.6,8.4,4.2l-2.3,1.6
			c-1.3-1.9-3.7-3-6.2-3c-2,0-3.7,0.6-5.1,1.8s-2.1,2.7-2.1,4.4s0.7,3.2,2.1,4.4s3.1,1.8,5.1,1.8c2.5,0,4.8-1.1,6.2-3l2.3,1.6
			c-1.9,2.7-5,4.2-8.4,4.2C268.7,430.3,266.3,429.4,264.4,427.7z"/>
		<path class="st2" d="M290.9,430.3V415h-7.6v-2.8h17.9v2.8h-7.6v15.2H290.9z"/>
		<path class="st2" d="M308.6,426.8l-1.7,3.4h-3.1l9.2-18.8l9.5,18.8h-3.1l-1.8-3.4H308.6z M313.1,417.5l-3.2,6.7h6.5L313.1,417.5z"
			/>
		<path class="st2" d="M340.8,430.3l-6.4-6.7h-5.1v6.7h-2.8v-18h11.8c1.6,0,2.9,0.6,4,1.7c1.1,1.1,1.7,2.4,1.7,4
			c0,1.6-0.6,2.9-1.7,4c-1.1,1.1-2.5,1.6-4.2,1.6l6.4,6.7H340.8z M329.3,420.8h9c0.8,0,1.5-0.3,2-0.8c0.6-0.6,0.9-1.3,0.9-2.1
			c0-0.8-0.3-1.5-0.9-2.1c-0.6-0.6-1.2-0.8-2-0.8h-9V420.8z"/>
		<path class="st2" d="M365.9,427.5v2.8h-16.8v-18h16.8v2.8h-14v4.9h9.5v2.8h-9.5v4.9H365.9z"/>
		<path class="st2" d="M383,430.3v-18h2.8v15.2h12.3v2.8H383z"/>
		<path class="st2" d="M405.6,426.8l-1.7,3.4h-3.1l9.2-18.8l9.5,18.8h-3.1l-1.8-3.4H405.6z M410,417.5l-3.2,6.7h6.5L410,417.5z"/>
		<path class="st2" d="M435.2,430.3v-18h12.2c1.6,0,2.9,0.6,4,1.7c1.1,1.1,1.7,2.4,1.7,4s-0.6,2.9-1.7,4c-1.1,1.1-2.4,1.7-4,1.7H438
			v6.7H435.2z M438,420.8h9.5c0.8,0,1.5-0.3,2.1-0.8c0.6-0.6,0.8-1.3,0.8-2.1c0-0.8-0.3-1.5-0.8-2.1c-0.6-0.6-1.3-0.8-2.1-0.8H438
			V420.8z"/>
		<path class="st2" d="M472.1,430.3l-6.4-6.7h-5.1v6.7h-2.8v-18h11.8c1.6,0,2.9,0.6,4,1.7c1.1,1.1,1.7,2.4,1.7,4
			c0,1.6-0.6,2.9-1.7,4c-1.1,1.1-2.5,1.6-4.2,1.6l6.4,6.7H472.1z M460.5,420.8h9c0.8,0,1.5-0.3,2-0.8c0.6-0.6,0.9-1.3,0.9-2.1
			c0-0.8-0.3-1.5-0.9-2.1c-0.6-0.6-1.2-0.8-2-0.8h-9V420.8z"/>
		<path class="st2" d="M497.2,427.5v2.8h-16.8v-18h16.8v2.8h-14v4.9h9.5v2.8h-9.5v4.9H497.2z"/>
		<path class="st2" d="M511.5,430.3h-8.9v-18h8.9c2.5,0,4.6,0.9,6.4,2.6c1.8,1.8,2.6,3.9,2.6,6.4s-0.9,4.6-2.6,6.4
			C516,429.4,513.9,430.3,511.5,430.3z M505.3,415v12.5h6.2c1.7,0,3.2-0.6,4.4-1.8c1.2-1.2,1.8-2.7,1.8-4.4s-0.6-3.2-1.8-4.4
			c-1.2-1.2-2.7-1.8-4.4-1.8H505.3z"/>
		<path class="st2" d="M528.1,426.8l-1.7,3.4h-3.1l9.2-18.8l9.5,18.8h-3.1l-1.8-3.4H528.1z M532.5,417.5l-3.2,6.7h6.5L532.5,417.5z"
			/>
		<path class="st2" d="M560.3,430.3l-6.4-6.7h-5.1v6.7H546v-18h11.8c1.6,0,2.9,0.6,4,1.7c1.1,1.1,1.7,2.4,1.7,4c0,1.6-0.6,2.9-1.7,4
			c-1.1,1.1-2.5,1.6-4.2,1.6l6.4,6.7H560.3z M548.8,420.8h9c0.8,0,1.5-0.3,2-0.8c0.6-0.6,0.9-1.3,0.9-2.1c0-0.8-0.3-1.5-0.9-2.1
			c-0.6-0.6-1.2-0.8-2-0.8h-9V420.8z"/>
		<path class="st2" d="M585.4,427.5v2.8h-16.8v-18h16.8v2.8h-14v4.9h9.5v2.8h-9.5v4.9H585.4z"/>
	</g>
</g>
</svg>
